HIERARCHY
ROOT Hips
{
	OFFSET 0.00000 0.00000 0.00000
	CHANNELS 6 Xposition Yposition Zposition Zrotation Yrotation Xrotation 
	JOINT LHipJoint
	{
		OFFSET 0 0 0
		CHANNELS 3 Zrotation Yrotation Xrotation
		JOINT LeftUpLeg
		{
			OFFSET 1.58161 -1.81893 0.78828
			CHANNELS 3 Zrotation Yrotation Xrotation
			JOINT LeftLeg
			{
				OFFSET 2.53374 -6.96141 0.00000
				CHANNELS 3 Zrotation Yrotation Xrotation
				JOINT LeftFoot
				{
					OFFSET 2.63509 -7.23986 0.00000
					CHANNELS 3 Zrotation Yrotation Xrotation
					JOINT LeftToeBase
					{
						OFFSET 0.14115 -0.38781 2.05350
						CHANNELS 3 Zrotation Yrotation Xrotation
						End Site
						{
							OFFSET 0.00000 -0.00000 1.05543
						}
					}
				}
			}
		}
	}
	JOINT RHipJoint
	{
		OFFSET 0 0 0
		CHANNELS 3 Zrotation Yrotation Xrotation
		JOINT RightUpLeg
		{
			OFFSET -1.11138 -1.81893 0.78828
			CHANNELS 3 Zrotation Yrotation Xrotation
			JOINT RightLeg
			{
				OFFSET -2.58392 -7.09926 0.00000
				CHANNELS 3 Zrotation Yrotation Xrotation
				JOINT RightFoot
				{
					OFFSET -2.66423 -7.31992 0.00000
					CHANNELS 3 Zrotation Yrotation Xrotation
					JOINT RightToeBase
					{
						OFFSET -0.18831 -0.51739 2.12114
						CHANNELS 3 Zrotation Yrotation Xrotation
						End Site
						{
							OFFSET -0.00000 -0.00000 1.09845
						}
					}
				}
			}
		}
	}
	JOINT LowerBack
	{
		OFFSET 0 0 0
		CHANNELS 3 Zrotation Yrotation Xrotation
		JOINT Spine
		{
			OFFSET -0.01511 1.97958 -0.08829
			CHANNELS 3 Zrotation Yrotation Xrotation
			JOINT Spine1
			{
				OFFSET 0.08344 1.97334 -0.04330
				CHANNELS 3 Zrotation Yrotation Xrotation
				JOINT Neck
				{
					OFFSET 0 0 0
					CHANNELS 3 Zrotation Yrotation Xrotation
					JOINT Neck1
					{
						OFFSET 0.00559 1.76246 0.31246
						CHANNELS 3 Zrotation Yrotation Xrotation
						JOINT Head
						{
							OFFSET -0.07011 1.80354 -0.30524
							CHANNELS 3 Zrotation Yrotation Xrotation
							End Site
							{
								OFFSET -0.02385 1.83547 -0.13906
							}
						}
					}
				}
				JOINT LeftShoulder
				{
					OFFSET 0 0 0
					CHANNELS 3 Zrotation Yrotation Xrotation
					JOINT LeftArm
					{
						OFFSET 3.20667 1.30156 -0.60240
						CHANNELS 3 Zrotation Yrotation Xrotation
						JOINT LeftForeArm
						{
							OFFSET 4.95663 -0.00000 0.00000
							CHANNELS 3 Zrotation Yrotation Xrotation
							JOINT LeftHand
							{
								OFFSET 3.38177 -0.00000 0.00000
								CHANNELS 3 Zrotation Yrotation Xrotation
								JOINT LeftFingerBase
								{
									OFFSET 0 0 0
									CHANNELS 3 Zrotation Yrotation Xrotation
									JOINT LeftHandIndex1
									{
										OFFSET 0.66291 -0.00000 0.00000
										CHANNELS 3 Zrotation Yrotation Xrotation
										End Site
										{
											OFFSET 0.53445 -0.00000 0.00000
										}
									}
								}
								JOINT LThumb
								{
									OFFSET 0 0 0
									CHANNELS 3 Zrotation Yrotation Xrotation
									End Site
									{
										OFFSET 0.54261 -0.00000 0.54261
									}
								}
							}
						}
					}
				}
				JOINT RightShoulder
				{
					OFFSET 0 0 0
					CHANNELS 3 Zrotation Yrotation Xrotation
					JOINT RightArm
					{
						OFFSET -3.06877 1.34672 -0.60964
						CHANNELS 3 Zrotation Yrotation Xrotation
						JOINT RightForeArm
						{
							OFFSET -5.08365 -0.00000 0.00000
							CHANNELS 3 Zrotation Yrotation Xrotation
							JOINT RightHand
							{
								OFFSET -3.35984 -0.00000 0.00000
								CHANNELS 3 Zrotation Yrotation Xrotation
								JOINT RightFingerBase
								{
									OFFSET 0 0 0
									CHANNELS 3 Zrotation Yrotation Xrotation
									JOINT RightHandIndex1
									{
										OFFSET -0.82076 -0.00000 0.00000
										CHANNELS 3 Zrotation Yrotation Xrotation
										End Site
										{
											OFFSET -0.66172 -0.00000 0.00000
										}
									}
								}
								JOINT RThumb
								{
									OFFSET 0 0 0
									CHANNELS 3 Zrotation Yrotation Xrotation
									End Site
									{
										OFFSET -0.67182 -0.00000 0.67182
									}
								}
							}
						}
					}
				}
			}
		}
	}
}
MOTION
Frames: 11
Frame Time: .0083333
-8.7036 17.7963 5.2605 -38.3018 83.1753 -20.7573 0.0000 0.0000 0.0000 -9.5889 -4.7202 -37.6431 3.0851 10.8315 31.7136 0.0388 -10.3240 -7.8509 0.0171 -0.8437 -2.3190 0.0000 0.0000 0.0000 16.1013 9.9467 -38.0235 -3.2441 -11.0800 32.5503 -0.1964 2.3000 -7.8893 -0.0639 -1.6314 4.4881 -1.4455 1.4062 7.8265 4.3603 2.0933 8.8693 5.3113 0.9872 4.6643 3.2268 0.3263 -11.7711 -7.3141 4.9953 41.1924 -2.8706 2.1850 17.3812 -0.0000 0.0000 0.0000 -90.4468 -18.0011 80.8442 49.9103 -52.9593 -26.1026 -0.0000 0.0000 -66.2277 29.9876 63.2605 27.2644 -7.1250 0.0000 -0.0000 170.7165 6.6612 8.2558 -0.0000 0.0000 0.0000 81.6963 17.7749 71.2573 -45.6252 51.0711 -22.7241 0.0000 -0.0000 -58.4084 -38.4860 -16.4065 12.6563 7.1250 -0.0000 -0.0000 -10.7911 -50.2831 1.4196
-8.7034 17.7990 5.2578 -38.1035 83.1732 -20.6425 0.0000 0.0000 0.0000 -9.6860 -4.6549 -37.5515 3.0813 10.8255 31.6938 0.0540 -10.2093 -8.0096 0.0432 -1.3418 -3.6898 0.0000 0.0000 0.0000 16.1025 9.8807 -37.9209 -3.2342 -11.0649 32.4990 -0.1954 2.3573 -7.8647 -0.0630 -1.6190 4.4538 -1.5178 1.3763 7.8890 4.3712 2.0529 8.9006 5.3652 0.9632 4.6656 3.1889 0.3559 -11.7898 -7.2711 5.0319 41.2028 -2.8380 2.1976 17.3929 -0.0000 -0.0000 0.0000 -90.4487 -17.9960 80.7882 49.9986 -52.9949 -26.1730 -0.0000 0.0000 -66.2184 30.0694 63.3421 27.3581 -7.1250 0.0000 -0.0000 170.7112 6.7520 8.2440 -0.0000 -0.0000 0.0000 81.6377 17.7830 71.2898 -45.7166 51.1148 -22.7952 0.0000 -0.0000 -58.3913 -38.5903 -16.4394 12.7261 7.1250 -0.0000 -0.0000 -10.9020 -50.3439 1.4509
-8.7035 17.8016 5.2557 -37.9987 83.1574 -20.5783 0.0000 0.0000 0.0000 -9.6200 -4.7691 -37.4449 3.0783 10.8207 31.6775 0.0447 -10.1942 -7.8585 0.0106 -0.6659 -1.8300 0.0000 0.0000 0.0000 16.0740 9.9428 -37.8116 -3.2207 -11.0440 32.4285 -0.1947 2.3132 -7.8548 -0.0760 -1.7783 4.8934 -1.5139 1.3672 7.9250 4.3544 2.0420 8.9088 5.3447 0.9588 4.6561 3.1682 0.3669 -11.7870 -7.2045 5.0264 41.2115 -2.8048 2.1998 17.3929 -0.0000 -0.0000 0.0000 -90.4853 -18.0132 80.8046 49.9904 -52.9916 -26.1665 -0.0000 0.0000 -66.1371 29.9448 63.3529 27.2430 -7.1250 0.0000 -0.0000 170.6750 6.7376 8.2798 -0.0000 -0.0000 0.0000 81.6067 17.7796 71.2624 -45.7922 51.1507 -22.8541 0.0000 -0.0000 -58.3857 -38.5162 -16.4705 12.7161 7.1250 -0.0000 -0.0000 -10.8256 -50.3665 1.4466
-8.7042 17.8042 5.2531 -38.0244 83.0790 -20.5820 0.0000 0.0000 0.0000 -9.5541 -4.7872 -37.4292 3.0718 10.8103 31.6428 0.0481 -10.1486 -7.8811 0.0080 -0.5765 -1.5842 0.0000 0.0000 0.0000 16.1188 9.9961 -37.7830 -3.2052 -11.0201 32.3476 -0.1932 2.2858 -7.8250 -0.0655 -1.6510 4.5420 -1.4919 1.3723 7.8983 4.3622 2.0486 8.9014 5.3408 0.9627 4.6626 3.1573 0.3822 -11.7773 -7.2168 5.0582 41.2082 -2.8028 2.2095 17.3920 -0.0000 -0.0000 0.0000 -90.5539 -18.0305 80.8293 49.9606 -52.9796 -26.1427 -0.0000 0.0000 -66.0554 30.0803 63.4195 27.3842 -7.1250 0.0000 -0.0000 170.6887 6.8249 8.2512 -0.0000 -0.0000 0.0000 81.5455 17.7732 71.1955 -45.8240 51.1658 -22.8788 0.0000 -0.0000 -58.4338 -38.4698 -16.4546 12.6841 7.1250 -0.0000 -0.0000 -10.7763 -50.3381 1.4323
-8.7045 17.8062 5.2513 -38.1481 82.9426 -20.6963 0.0000 0.0000 0.0000 -9.5368 -4.6067 -37.4463 3.0606 10.7924 31.5830 0.0591 -10.1059 -8.0235 0.0268 -1.0574 -2.9069 0.0000 0.0000 0.0000 16.2491 9.9780 -37.7794 -3.1923 -11.0001 32.2801 -0.1888 2.3925 -7.7267 -0.0632 -1.6225 4.4634 -1.4534 1.3974 7.8601 4.3944 2.0831 8.9219 5.3537 0.9804 4.7024 3.1156 0.3812 -11.8310 -7.2629 5.0887 41.2168 -2.8116 2.2084 17.4155 0.0000 0.0000 0.0000 -90.6471 -18.1316 80.9200 49.9182 -52.9624 -26.1088 -0.0000 0.0000 -66.0896 30.3704 63.4863 27.6712 -7.1250 0.0000 -0.0000 170.7434 6.9425 8.1801 0.0000 0.0000 0.0000 81.4171 17.8129 71.1285 -45.8144 51.1613 -22.8714 0.0000 -0.0000 -58.5016 -38.5574 -16.4483 12.7181 7.1250 -0.0000 -0.0000 -10.8678 -50.3480 1.4474
-8.7042 17.8073 5.2497 -38.1033 82.8741 -20.6813 0.0000 0.0000 0.0000 -9.4635 -4.6222 -37.3526 3.0500 10.7756 31.5268 0.0507 -10.0979 -7.8894 0.0082 -0.5845 -1.6062 0.0000 0.0000 0.0000 16.2869 9.9996 -37.7183 -3.1843 -10.9875 32.2379 -0.1861 2.4197 -7.6704 -0.0781 -1.8023 4.9597 -1.4315 1.3884 7.8586 4.3973 2.0730 8.9492 5.3460 0.9760 4.7341 3.0643 0.3866 -11.8732 -7.2806 5.1175 41.2183 -2.8055 2.2080 17.4301 -0.0000 -0.0000 0.0000 -90.6868 -18.2273 80.9771 49.8853 -52.9491 -26.0825 -0.0000 0.0000 -66.1468 30.4682 63.5598 27.7785 -7.1250 0.0000 -0.0000 170.7452 7.0288 8.1627 -0.0000 -0.0000 0.0000 81.3708 17.8598 71.1377 -45.7066 51.1100 -22.7874 0.0000 -0.0000 -58.4295 -38.4666 -16.4129 12.6524 7.1250 -0.0000 -0.0000 -10.7711 -50.2870 1.4179
-8.7044 17.8077 5.2463 -37.0813 82.9113 -19.6778 0.0000 0.0000 0.0000 -9.5562 -4.7433 -37.2572 3.0418 10.7624 31.4826 0.0464 -10.0495 -7.7916 0.0011 -0.2100 -0.5769 0.0000 0.0000 0.0000 16.1286 9.9975 -37.6908 -3.1778 -10.9774 32.2038 -0.1853 2.4014 -7.6549 -0.0914 -1.9495 5.3662 -1.5924 1.3242 7.8764 4.3640 1.9798 8.9281 5.4048 0.9211 4.7085 3.0565 0.4477 -11.7924 -7.3332 5.2354 41.2011 -2.8074 2.2490 17.4129 0.0000 -0.0000 0.0000 -90.6341 -18.1500 80.8532 49.9806 -52.9877 -26.1587 -0.0000 0.0000 -66.1669 30.3923 63.5984 27.7148 -7.1250 0.0000 -0.0000 170.7117 7.0493 8.1893 0.0000 -0.0000 0.0000 81.3854 17.8440 71.2871 -45.6192 51.0682 -22.7194 0.0000 -0.0000 -58.3517 -38.1987 -16.2642 12.4282 7.1250 -0.0000 -0.0000 -10.4851 -50.0544 1.3191
-8.7052 17.8071 5.2429 -35.4632 82.9094 -18.0442 0.0000 0.0000 0.0000 -9.7566 -4.7603 -37.2383 3.0355 10.7523 31.4491 0.0526 -9.9625 -7.8339 0.0038 -0.3991 -1.0965 0.0000 0.0000 0.0000 15.9592 9.9208 -37.7449 -3.1694 -10.9644 32.1598 -0.1816 2.5258 -7.5724 -0.0912 -1.9480 5.3621 -1.8511 1.2896 7.8572 4.3273 1.9202 8.8963 5.5151 0.8769 4.6870 3.0959 0.5160 -11.6834 -7.4168 5.3661 41.1872 -2.8304 2.3000 17.3943 0.0000 0.0000 0.0000 -90.6052 -18.0571 80.7045 50.0364 -53.0102 -26.2032 -0.0000 0.0000 -66.2148 30.4934 63.4384 27.7773 -7.1250 0.0000 -0.0000 170.7923 6.9229 8.1393 0.0000 0.0000 0.0000 81.3164 17.8160 71.4184 -45.6863 51.1003 -22.7716 0.0000 -0.0000 -58.4114 -38.1262 -16.1657 12.3261 7.1250 -0.0000 -0.0000 -10.4060 -49.9213 1.2747
-8.7058 17.8098 5.2414 -35.1221 82.8090 -17.6985 0.0000 0.0000 0.0000 -9.8021 -4.6360 -37.2686 3.0382 10.7566 31.4634 0.0627 -9.9055 -7.9550 0.0162 -0.8226 -2.2608 0.0000 0.0000 0.0000 15.9826 9.9564 -37.7127 -3.1563 -10.9438 32.0907 -0.1793 2.5777 -7.5221 -0.0817 -1.8440 5.0746 -1.9086 1.2910 7.8359 4.3197 1.9188 8.8984 5.5406 0.8724 4.7003 3.1557 0.5627 -11.6442 -7.4604 5.4383 41.1834 -2.8493 2.3334 17.3928 -0.0000 -0.0000 0.0000 -90.6234 -18.0699 80.6859 49.9495 -52.9751 -26.1338 -0.0000 0.0000 -66.2392 30.5832 63.2718 27.8275 -7.1250 0.0000 -0.0000 170.8715 6.7885 8.0914 -0.0000 -0.0000 0.0000 81.2605 17.8242 71.4319 -45.7451 51.1283 -22.8174 0.0000 -0.0000 -58.4733 -38.2917 -16.1086 12.3560 7.1250 -0.0000 -0.0000 -10.5759 -49.8848 1.2863
-8.7061 17.8167 5.2394 -35.1040 82.7092 -17.7118 0.0000 0.0000 0.0000 -9.8779 -4.4214 -37.3112 3.0498 10.7753 31.5257 0.0832 -9.8393 -8.2286 0.0598 -1.5782 -4.3412 0.0000 0.0000 0.0000 16.0020 10.0933 -37.5717 -3.1376 -10.9145 31.9922 -0.1785 2.4980 -7.5065 -0.0873 -1.9063 5.2467 -1.9021 1.2823 7.8619 4.3132 1.9077 8.9050 5.5300 0.8675 4.6944 3.1962 0.6136 -11.6180 -7.4886 5.5137 41.1731 -2.8567 2.3663 17.3901 0.0000 0.0000 0.0000 -90.6353 -18.0694 80.7107 49.8924 -52.9520 -26.0883 -0.0000 0.0000 -66.1743 30.5789 63.1735 27.8030 -7.1250 0.0000 -0.0000 170.9035 6.6977 8.0786 0.0000 0.0000 0.0000 81.3012 17.8305 71.4369 -45.7202 51.1165 -22.7980 0.0000 -0.0000 -58.4487 -38.5371 -16.0525 12.4208 7.1250 -0.0000 -0.0000 -10.8288 -49.8653 1.3125
-8.7063 17.8206 5.2360 -34.8562 82.6363 -17.5152 0.0000 0.0000 0.0000 -9.9526 -4.3059 -37.3037 3.0636 10.7973 31.5993 0.1041 -9.7194 -8.4741 0.1122 -2.1596 -5.9470 0.0000 0.0000 0.0000 15.9821 10.1880 -37.4219 -3.1148 -10.8786 31.8717 -0.1757 2.4529 -7.4479 -0.0989 -2.0284 5.5842 -1.9226 1.2680 7.9131 4.3059 1.8882 8.9088 5.5333 0.8574 4.6720 3.2065 0.6520 -11.5821 -7.5270 5.5811 41.1479 -2.8639 2.3903 17.3753 -0.0000 -0.0000 0.0000 -90.6707 -18.0463 80.7080 49.8997 -52.9550 -26.0941 -0.0000 0.0000 -66.1360 30.4755 63.0580 27.6815 -7.1250 0.0000 -0.0000 170.9135 6.5715 8.0918 -0.0000 -0.0000 0.0000 81.3443 17.8243 71.4443 -45.6690 51.0920 -22.7581 0.0000 -0.0000 -58.4168 -38.7668 -15.9600 12.4520 7.1250 -0.0000 -0.0000 -11.0634 -49.7983 1.3231
